<svg fill="none" xmlns="http://www.w3.org/2000/svg" viewBox="0 0 220 64"><path d="M150.085 55.088c.087-1.147-.232-2.155-.864-3.108-.645-.97-.967-2.02-.481-3.176l.077-.263c.285-1.042.154-2.004-.62-2.803-.581-.602-.74-1.292-.57-2.085.224-1.043.15-2.01-.481-2.945-.547-.812-.642-1.708-.207-2.668.367-.806.607-1.676.84-2.533.181-.669.182-1.376-.071-2.026-.206-.531-.153-1.013-.025-1.535.136-.55.211-1.12.285-1.682a1.232 1.232 0 0 0-.413-1.114c-.427-.39-.575-.876-.504-1.428.085-.634.208-1.261-.125-1.872-.059-.107-.024-.27-.015-.407.083-1.101-.197-2.127-.632-3.125a3.558 3.558 0 0 1-.289-1.807c.126-1.215.049-2.427-.163-3.617-.229-1.28-.59-2.535-.861-3.809-.095-.44-.156-.904-.129-1.35.056-.91.166-1.817.288-2.723.148-1.09.417-2.149.89-3.155.454-.974.874-1.964 1.295-2.952a7.18 7.18 0 0 0 .371-1.104c.109-.452.104-.91-.172-1.32-.366-.548-.848-.65-1.328-.192-.391.378-.761.81-1.023 1.28a13.547 13.547 0 0 1-1.822 2.571c-.498.547-.71 1.199-.74 1.943-.057 1.447-.389 2.803-1.443 3.897-.3.313-.563.664-.806 1.024-.244.358-.5.727-.639 1.13-.33.947-.689 1.902-.858 2.886-.223 1.31-.569 2.579-.918 3.858a6.016 6.016 0 0 1-1.536 2.701 4.308 4.308 0 0 0-1.013 1.696 44.81 44.81 0 0 0-.672 2.303 6.69 6.69 0 0 0-.192 1.078c-.159 1.729-.285 3.46-.462 5.185-.042.41-.005.864-.29 1.234l-.122-.106c-.456-.623-.51-1.344-.58-2.08-.162-1.727-.339-3.45-.269-5.188.02-.525 0-1.051.016-1.576.014-.43-.167-.749-.494-1.005-.124-.097-.253-.187-.397-.293l.077-.958c.059-.771-.047-1.488-.549-2.136-.179-.23-.257-.592-.255-.892.007-.774.08-1.55.142-2.324.048-.64-.184-1.161-.634-1.602-.115-.11-.264-.2-.347-.33-.128-.201-.315-.435-.303-.645.04-.748.106-1.502.253-2.236.115-.578.379-1.125.545-1.695.299-1.03.611-2.057.847-3.103.121-.535-.146-.909-.599-1.111-.433-.198-.795-.15-1.142.32a29.058 29.058 0 0 0-1.662 2.512c-.223.383-.315.852-.415 1.294-.166.742-.344 1.48-.901 2.04-.602.61-.931 1.35-1.145 2.158-.034.134-.103.26-.182.453-.376-.963-.529-1.057-1.344-.863-.029-.131-.039-.269-.09-.39-.226-.545-.657-.629-1.062-.194-.17.18-.343.387-.427.615-.314.858-.63 1.717-.876 2.593-.244.88-.367 1.792-.604 2.673-.524 1.939-.909 3.919-1.75 5.765-.103.225-.141.482-.188.727a10.002 10.002 0 0 0 .074 3.949c.336 1.563.304 3.133.058 4.704-.156 1.016-.755 1.8-1.401 2.551-1.023 1.188-1.47 2.554-1.342 4.118.061.761.223 1.484.532 2.184.535 1.208.732 2.444.248 3.725a2.84 2.84 0 0 0-.167.664c-.073.567-.095 1.124.164 1.679.147.317.213.7.215 1.054.01 1.395-.023 2.788-.026 4.183-.001.247.045.5.113.74.094.346.297.63.669.715.403.093.65-.169.858-.451.373-.506.636-1.065.699-1.694.115-1.13.488-2.175.932-3.21.201-.471.283-1.013.317-1.528.066-1.012-.158-2-.369-2.984-.052-.241-.09-.504-.048-.743.21-1.174.661-2.26 1.559-3.062.739-.664 1.046-1.414.919-2.371-.029-.228-.011-.463-.059-.685-.152-.689-.062-1.353.093-2.032.211-.934.45-1.873.528-2.824a30.07 30.07 0 0 1 .774-4.654c.261-1.064.265-2.12-.116-3.17-.37-1.023-.337-2.06.02-3.094.179-.517.277-1.06.449-1.58.189-.575.321-1.186.858-1.77.044.33.104.545.095.753a43.455 43.455 0 0 1-.154 2.047c-.086.883.103 1.64.89 2.156.35.228.529.557.597.96.069.405.274.787.623.947.828.38.967 1.088 1.044 1.855l.02.205c.163 1.366.405 2.698 1.087 3.936.276.5.313 1.134.435 1.71.082.378.048.794.193 1.142.287.691.239 1.377.166 2.089-.149 1.515.262 2.39 1.611 2.656.333.065.52.267.551.61.035.34.08.678.124 1.018.115.886.254 1.77.81 2.514.325.436.74.687 1.309.556.469-.11.857-.585.909-1.165.05-.523.092-1.053.062-1.575-.082-1.423.337-2.7 1.019-3.928.194-.35.348-.754.403-1.15.098-.721.133-1.455.155-2.184.039-1.318.278-2.549 1.343-3.47l.139-.152c.957-1.304 1.498-2.712 1.162-4.36-.256-1.265-.035-2.498.303-3.717.066-.238.165-.469.25-.703.116.28.116.532.116.783.002.774.24 1.433.911 1.895.167.116.308.274.444.43.332.383.508.815.363 1.328-.134.483-.27.966-.418 1.448-.288.937-.709 1.855-.847 2.813-.196 1.358-.129 2.739.403 4.052.108.272.218.562.236.85.035.661.055 1.328.012 1.988-.147 2.225.463 4.2 1.91 5.91.376.441.408.906.269 1.467a14.382 14.382 0 0 0-.379 2.35c-.067.85.285 1.514 1.135 1.839l.118.123c0 .43.004.887-.002 1.343-.007.605.194 1.127.655 1.524.362.314.733.632 1.143.877.418.252.544.576.484 1.034-.057.43-.079.863-.108 1.297-.023.363.069.684.422.868.328.17.568-.027.813-.203l.133-.008.088.095c.401.402.66.47 1.016.269.353-.202.427-.496.298-1.01-.077-.305-.161-.63-.137-.936ZM40.333 57.725c-.134-.847-.482-1.61-1.09-2.246-.733-.77-1.18-1.66-1.248-2.743-.08-1.244-.797-2.064-1.932-2.5-.373-.144-.638-.34-.816-.678-.212-.403-.455-.796-.632-1.214-.224-.53-.617-.888-1.145-1.004-.615-.138-.887-.51-1.022-1.057-.051-.2-.12-.397-.15-.6-.207-1.31-.927-2.27-2.056-2.933-.36-.213-.54-.509-.71-.876-.346-.743-.661-1.535-1.171-2.157-.727-.885-1.641-1.567-2.933-1.06l-.163-.044c-.156-.326-.298-.689-.495-1.02-.483-.8-.798-.87-1.607-.407l-.11.007c-.07-.144-.146-.304-.226-.463-.276-.551-.525-1.12-.84-1.649-.282-.475-.624-.905-1.291-.874-.17.008-.347-.15-.647-.29.336-.233.51-.386.71-.485.623-.31 1.095-.76 1.331-1.414a.83.83 0 0 1 .573-.54c.328-.1.665-.188 1.005-.218.916-.082 1.523-.625 1.969-1.34.459-.736.798-1.543.94-2.413.073-.45.152-.859.619-1.133.22-.13.357-.472.438-.744.1-.346.142-.722.138-1.082-.007-.625.15-1.149.603-1.615.828-.847 1.062-1.894.869-3.044-.156-.929-.255-1.838.092-2.767.413-1.099.15-2.076-.795-2.817-.29-.226-.397-.476-.347-.823.03-.204.05-.41.06-.615.033-.705.074-1.41.078-2.116 0-.194-.069-.423-.185-.577-.821-1.084-1.48-1.416-2.64-1.013-.238.083-.478.174-.724.212-.4.066-.54-.062-.583-.462-.03-.295-.034-.595-.095-.884-.12-.606-.473-.9-1.1-.934a2.805 2.805 0 0 0-.685.043c-.692.135-1.287.02-1.85-.455-.394-.336-.882-.57-1.35-.813-.813-.423-1.65-.8-2.458-1.232a3.513 3.513 0 0 0-1.577-.432c-.274-.011-.556.027-.825-.02-.891-.16-1.611.163-2.294.694-.76.59-1.535 1.165-2.33 1.71-1.045.715-2.176 1.074-3.45.67l-.269-.055c-.518-.163-.985-.03-1.461.192a5.778 5.778 0 0 0-1.948 1.498c-.32.373-.645.514-1.138.29-.439-.198-.693-.117-.901.226-.499.82-.821 2.173.214 3.15.167.156.334.313.511.459.718.59.815 1.332.55 2.17-.115.37-.243.741-.311 1.12-.279 1.561-.156 3.012 1.182 4.127.28.231.518.522.742.81.4.518.702 1.067.52 1.77-.138.528-.197 1.076-.331 1.604-.114.446-.114.848.15 1.247a.847.847 0 0 1 .146.508c-.044.428.048.814.233 1.193.2.405.215.808.087 1.258-.212.733-.13 1.448.389 2.065.222.263.422.542.644.805.33.39.494.803.339 1.327-.176.592-.084 1.156.185 1.724.57 1.21.94 2.492.946 3.832.001.76.074 1.555-.384 2.26-.386.593-.166 1.191.229 1.644.548.63.805 1.37 1.079 2.123.129.356.099.66-.103.974-.604.948-.637 1.965-.392 3.034.173.751.513 1.42.924 2.052.293.451.514.918.596 1.444.07.447.247.822.604 1.12.112.094.222.252.234.392.074.745.252 1.479.037 2.242-.22.776-.038 1.188.673 1.61.477.281.653.683.68 1.184.021.387-.005.779.014 1.166.039.684.248 1.302.797 1.76.248.208.515.42.866.273.358-.147.503-.466.51-.829.01-.432-.01-.869-.04-1.3-.049-.755-.022-1.47.757-1.896l.102-.092c.817-.805.902-1.65.334-2.652-.416-.736-.607-1.518-.234-2.356.147-.33.269-.694.295-1.051.023-.35-.008-.746-.16-1.051-.295-.59-.683-1.135-1.05-1.689-.574-.867-.899-1.752-.28-2.739l.085-.187c.586-1.065.638-2.128-.025-3.182-.203-.322-.229-.632-.001-.956.423-.597.34-1.195.01-1.806a7.936 7.936 0 0 1-.504-1.123c-.263-.737-.025-1.184.857-1.495.35.38.726.809 1.124 1.22.59.607 1.326.842 2.137.611.612-.173.974.08 1.271.527.317.477.586.984.91 1.453.26.373.542.74.871 1.05.344.329.613.285.957-.045.64-.618.776-.63 1.386.002.335.35.695.6 1.2.54.377-.047.617.11.766.439.32.706.663 1.403.956 2.119.367.9.975 1.183 1.85.815.127-.053.25-.114.38-.166.494-.199.545-.209.829.268.35.588.669 1.196.962 1.815.394.825 1.04 1.367 1.914 1.52.532.094.812.342 1.026.771.11.225.245.44.356.666.516 1.04 1.1 2.011 2.305 2.397l.23.147c.594.41 1.155.833 1.194 1.651.041.814.376 1.547.68 2.289.209.506.512.913 1.003 1.175.398.214.67.533.829.964.152.407.336.803.529 1.19.27.538.76.872 1.105.782.358-.094.547-.486.53-1.158-.008-.294-.16-.621-.073-.877.22-.653.03-1.27-.069-1.892ZM19.416 28.644c-.142.09-.324.127-.492.164-.375.087-.765.124-1.129.244a6.857 6.857 0 0 0-1.196.52c-.291.166-.572.385-.782.64a2.68 2.68 0 0 1-1.142.82c-.165-.138-.322-.3-.507-.425-.812-.544-1.303-.583-1.951-.1-.177.133-.384.222-.734.418.066-.43.084-.712.157-.977.067-.24.204-.46.293-.695.274-.72.19-1.02-.47-1.438-.272-.17-.375-.367-.368-.67.011-.456.004-.915.002-1.373-.003-.675-.273-1.18-.907-1.483-.425-.205-.462-.352-.357-.821.065-.287.12-.581.153-.874.117-.988-.38-1.675-1.109-2.26-.125-.1-.252-.29-.248-.435.017-.7-.218-1.399.058-2.101.174-.446-.11-.803-.414-1.091-.477-.448-.534-.99-.416-1.577.098-.493.325-.642.823-.574.136.02.278.024.408.062 1.13.34 2.02-.087 2.807-.857.13-.128.267-.252.395-.383.432-.444.965-.601 1.568-.538.39.04.773.132 1.162.152.501.028 1.003.009 1.563.009 1.096 1.98 1.567 2.218 3.256 1.607.405.408.862.777.565 1.497-.136.332-.013.685.224.962.327.383.653.767 1.01 1.12.243.242.54.43.818.647-.178.293-.263.449-.363.592-.407.585-.488.994-.046 1.498.612.694.291 1.425.255 2.155l-.086.18c-.436.488-.88.972-1.315 1.462-.43.484-.559 1.09-.658 1.699-.057.36-.078.727-.135 1.088-.076.468-.275.877-.692 1.136ZM219.116 28.187c-.322-.155-.631-.082-.932.048-.778.334-1.566.649-2.322 1.027-.488.242-1.003.512-1.37.897-1.151 1.208-2.807 1.647-4.041 2.715l-.123.06c-1.105.443-2.19.951-3.323 1.307-.989.31-2.005.496-2.671 1.438a1.461 1.461 0 0 1 .074-.628c.203-.538.11-1.035-.185-1.504-.218-.349-.466-.68-.683-1.03-.104-.168-.233-.365-.23-.545.011-.449-.189-.774-.442-1.118-.161-.225-.295-.529-.303-.8-.042-1.414-.035-2.829-.063-4.241-.014-.712-.322-1.264-.95-1.643-.182-.11-.387-.302-.44-.493-.381-1.381-1.217-2.62-1.281-4.1a1.536 1.536 0 0 0-.111-.465c-.452-1.172-.887-2.352-1.379-3.507-.203-.477-.518-.915-.827-1.339-.118-.158-.408-.348-.543-.3-.197.067-.416.318-.456.522-.071.373-.029.768-.014 1.155.038 1.183.087 2.368.133 3.57-.749.167-.93.663-.887 1.258.058.795.151 1.585.241 2.376.052.453.169.9.183 1.353.024.89.009 1.783-.006 2.674-.016.998.147 1.963.579 2.863.359.756.582 1.536.62 2.367.02.433.043.868.03 1.3-.013.428.144.765.474 1.015.23.173.494.302.876.532-.299 1.078-.574 2.184-.914 3.272-.325 1.045-.766 2.047-.465 3.198.137.52-.073.732-.594.91-.325.113-.664.185-.985.309-.833.323-1.68.619-2.481 1.012-.689.34-.729.774-.241 1.373l.106.151-.08.128a6.882 6.882 0 0 1-.477.27c-1.041.536-1.881 1.308-2.623 2.192-.503.6-.511 1.003-.103 1.615.476.71.465.948-.164 1.514a94.69 94.69 0 0 1-2.336 2.023c-.357.302-.659.625-.823 1.075-.055.151-.188.333-.329.383-.834.302-1.355.916-1.76 1.657-.361.66-.844 1.197-1.518 1.545-.365.187-.762.314-1.12.513-1.6.89-2.914 2.145-4.222 3.394-.3.286-.477.718-.651 1.11-.182.405-.27.838.152 1.186.355.292.779.293 1.282-.001l.281-.197c.932-.778 1.85-1.573 2.797-2.333.351-.282.746-.558 1.166-.697.823-.272 1.674-.467 2.524-.657.919-.207 1.718-.58 2.385-1.276.885-.927 1.823-1.806 2.743-2.701a2.69 2.69 0 0 1 .479-.389 3.03 3.03 0 0 0 1.278-1.488c.442-1.107 1.177-2.007 1.938-2.895.341-.4.719-.771 1.037-1.19.202-.265.387-.574.467-.893.252-.988.819-1.71 1.664-2.261 1.171-.766 2.32-1.559 3.485-2.334a3.38 3.38 0 0 0 1.16-1.327c.174-.343.396-.67.643-.966.709-.852 1.618-1.378 2.692-1.692 1.721-.503 2.945-1.63 3.72-3.226.203-.417.511-.7.885-.926a4.55 4.55 0 0 1 .806-.385c.808-.302 1.497-.78 2.144-1.344.378-.33.779-.656 1.219-.89 1.332-.7 2.509-1.608 3.599-2.63a37.132 37.132 0 0 0 1.831-1.86c.38-.406.271-.797-.225-1.036ZM107.137 40.527c-.383-.91-.723-1.823-.661-2.841.043-.703-.018-1.41.008-2.114.021-.569.043-1.147.17-1.698.226-.976.524-1.939.808-2.901.133-.449.104-.874-.189-1.234-.417-.514-.462-1.09-.321-1.684.175-.731.411-1.45.606-2.177.07-.26.149-.534.136-.799-.021-.45-.201-.868-.65-1.052-.48-.198-.909-.014-1.238.353-.227.252-.462.529-.584.839-.217.548-.372 1.124-.515 1.699-.278 1.125-.53 2.258-.795 3.385l-.092.258c-.54.83-.727 1.762-.854 2.72-.064.498-.329.826-.799 1.102a10.14 10.14 0 0 0-1.88 1.466c-.537.523-.968 1.154-1.442 1.739.014-.4-.008-.805.062-1.192.244-1.345.526-2.684.788-4.028.13-.67.272-1.345.357-2.022.042-.353.037-.74-.065-1.077-.126-.416-.38-.802-.895-.833-.49-.033-.824.233-1.06.635-.08.138-.15.284-.21.431-.603 1.488-1.202 2.977-1.844 4.566-.213-.971-.612-1.677-1.708-1.427-.384-.634-.478-1.293-.608-1.938a2.604 2.604 0 0 0-.708-1.308c-.277-.288-.628-.288-.96-.167-.338.126-.566.367-.566.776 0 .34-.053.679-.078 1.02-.041.566-.11 1.133-.113 1.699a15.13 15.13 0 0 0 .103 1.777c.103.88-.439 1.459-.902 2.16-.229-.464-.458-.837-.603-1.242-.099-.272-.055-.59-.118-.877-.1-.445-.251-.877-.352-1.322a29.773 29.773 0 0 1-.297-1.534c-.042-.248-.03-.503-.075-.748-.22-1.187-.56-2.35-.565-3.574a4.558 4.558 0 0 0-.155-1.145c-.112-.416-.423-.636-.742-.564-.407.094-.815.23-1.035.62-.222.395-.429.805-.585 1.23-.165.45-.262.922-.385 1.386-.085.324-.268.525-.63.507-.662-.03-.995.383-1.23.914-.166.376-.284.774-.476 1.137-.506.964-.634 1.944-.216 2.971.143.35.176.708.043 1.068-.457 1.24-.676 2.567-1.416 3.703-.147.225-.276.498-.298.76-.038.443-.142.993.062 1.325.369.59.439 1.177.42 1.82-.005.136.015.278.046.409.107.42.439.72.802.739.4.019.647-.186.797-.702.11-.376.244-.723.539-1.01.343-.335.415-.777.246-1.21-.135-.354-.033-.617.163-.887.149-.203.326-.392.442-.61.113-.215.232-.459.23-.69-.006-.768.409-1.316.856-1.912.156.118.25.231.369.274.547.186.741.638.894 1.124.215.699.38 1.415.65 2.09.367.932.808 1.834 1.225 2.747l.17.214c.228.24.495.305.814.198.421-.138.674-.423.676-.854.003-.91-.028-1.823-.053-2.735-.014-.51-.048-1.022-.075-1.61.484.256.674.548.633.987-.02.203.017.414-.015.615-.125.788.39 1.22.909 1.647.199.162.446.165.635-.01.49-.455.972-.921.877-1.689a1.643 1.643 0 0 1 .018-.608c.19-.738.12-1.447-.168-2.143-.097-.229-.139-.448.005-.728.334.303.683.517.887.827.481.72.906 1.478 1.326 2.236.332.599.613 1.223.935 1.827.168.315.418.564.815.528.404-.038.674-.254.786-.66.07-.255.173-.5.274-.788l.09.098.027.202c.056.932.565 1.507 1.424 1.822.3.109.594.24.871.394 1.124.626 2.398.392 3.2-.599.126-.155.245-.316.423-.547.076.347.136.61.187.873a3.07 3.07 0 0 0 .928 1.649c.45.425 1.063.456 1.578.109.454-.307.694-.703.646-1.27a9.656 9.656 0 0 0-.73-2.915Zm-21.909-6.106c.4-1.056.775-2.046 1.149-3.038l.178.045c0 .52-.075 1.055.021 1.559.09.463.366.893.6 1.434h-1.948Zm17.936 5.168c-.232.191-.406.452-.626.662-.375.362-.846.298-.92-.18-.069-.444.051-.922.125-1.38.073-.447.259-.767.756-.965.443-.18.792-.587 1.303-.986.116 1.103.296 2.076-.638 2.85ZM74.685 19.43c-.492.082-1.008.123-1.464.305a6.51 6.51 0 0 0-1.559.869c-1.395 1.077-2.757 2.198-4.121 3.315-.339.278-.634.62-1.123.574-.422-.04-.764.126-1.076.375-.502.398-.987.82-1.495 1.213-.233.18-.485.35-.755.467-.454.2-.928.353-1.4.528-.317-.555-.343-1.135-.033-1.736.126-.243.233-.506.277-.772.13-.783.307-1.563-.154-2.329-.138-.23-.091-.571-.116-.864-.033-.385.053-.824-.101-1.146-.261-.536-.165-1.003.006-1.504.066-.195.138-.389.19-.586.238-.872.315-1.755.134-2.645-.199-.988-1.053-1.296-1.865-.684l-.425.318c-.814-.204-.97-.183-1.328.346-.16.238-.279.535-.313.817-.045.405.016.821.008 1.233-.023 1.276.088 2.579-.128 3.822-.279 1.612-.647 3.224-1.25 4.766-.18.462-.236.973-.348 1.461-.106.465-.182.939-.322 1.393-.218.717-.498 1.416-.715 2.136-.075.254-.079.547-.046.815.055.441.32.758.747.9.385.128.666-.071.9-.35.278-.335.546-.676.83-1.007.122-.142.267-.263.403-.394l.163.091c-.096.387-.199.776-.288 1.168-.067.286-.157.576-.161.865-.014 1.064-.165 2.077-.737 3.014-.238.393-.374.927.032 1.27.443.377.39.788.31 1.238-.254 1.416-.512 2.83-.78 4.243-.047.245-.123.49-.23.716-.37.773-.496 1.603-.682 2.428-.199.887.215 1.449.743 2.006.32.34.64.375.962.044.313-.32.636-.697.768-1.107.271-.851.563-1.686.947-2.492.096-.204.15-.433.198-.654.188-.871.364-1.744.547-2.616.171-.824.344-1.648.54-2.58.732.342 1.086-.136 1.467-.588.085-.104.247-.143.411-.232.154.406.232.778.426 1.076.195.295.51.515.767.773l.157.223c.579 1.065 1.22 2.116 1.304 3.362.053.774.442 1.328 1.016 1.786.68.541 1.066 1.272 1.235 2.082.236 1.11.798 2.039 1.467 2.909.298.387.44.778.491 1.245.043.381.077.793.247 1.126.285.558.503 1.11.55 1.742.033.463.4.738.836.745.485.005.723-.195.84-.72.021-.087.024-.18.039-.316.69.01 1.03-.17 1.119-.697.12-.72.198-1.451-.085-2.164-.136-.34-.247-.689-.362-1.036-.675-2.04-1.323-4.081-1.435-6.258-.03-.514-.309-1.054-.596-1.505-.486-.764-.854-1.537-.999-2.446-.197-1.23-.703-1.663-1.936-1.867-.463-.078-.883-.22-1.175-.632-.662-.934-1.343-1.854-2.012-2.78-.095-.131-.168-.274-.25-.412-.223-.368-.432-.746-.67-1.103-.483-.727-.216-1.582.613-1.898.515-.195 1.033-.378 1.547-.574 1.465-.558 2.48-1.504 2.86-3.082.222-.915.698-1.69 1.658-2.05.193-.073.364-.198.552-.283.959-.44 1.648-1.15 2.097-2.092.174-.364.457-.6.762-.856.647-.544 1.243-1.148 1.844-1.745.18-.179.297-.41.152-.683-.135-.255-.353-.367-.627-.32ZM177.389 49.107c.228-.314.302-.682.191-1.044a17.63 17.63 0 0 0-.621-1.736c-.394-.918-.618-1.829-.456-2.858.253-1.62-.108-3.16-1.1-4.477-.425-.563-.58-1.096-.487-1.766.059-.425.055-.863-.197-1.262-.576-.91-1.129-1.832-2.124-2.381-.348-.191-.336-.602.007-.83.21-.137.459-.21.68-.332.399-.22.819-.419 1.178-.694.447-.344.921-.585 1.477-.69.215-.041.423-.154.62-.26.672-.36 1.112-.937 1.496-1.574.224-.37.304-.76.258-1.181-.031-.272-.035-.554-.11-.814-.107-.365-.184-.792-.426-1.054-.458-.498-.753-1.083-1.115-1.632-.219-.337-.3-.598-.063-.986.35-.57.213-1.079-.276-1.537-.54-.502-1.158-.728-1.896-.562-.615.138-1.185-.007-1.73-.282-.854-.434-1.402-.391-2.03.312-.638.716-1.2 1.5-1.792 2.256-.094.118-.178.244-.287.394-.358-.328-.329-.722-.375-1.098-.105-.837-.189-1.679-.358-2.502-.1-.49-.432-.703-.818-.705-.42-.006-.81.294-.937.766-.052.188-.03.398-.037.599-.022.59-.009 1.183-.07 1.771-.117 1.133-.366 2.26-.395 3.394-.03 1.245-.214 2.45-.48 3.659-.089.41-.042.856-.015 1.284.035.551.365.91.841 1.17.592.322.733.721.48 1.36-.142.362-.336.702-.478 1.064-.242.622-.282 1.263.054 1.858.363.645.374 1.264.17 1.97a4.41 4.41 0 0 0-.151 1.753 8.56 8.56 0 0 1 .015 2.18c-.037.295-.073.6-.034.888.031.23.127.494.283.662.586.627 1.524.478 1.857-.336.192-.473.27-1.018.278-1.531a5.595 5.595 0 0 1 .503-2.25c.239-.53.325-1.135.436-1.713.066-.349.047-.712.062-.97.163.12.366.26.562.41.929.707 1.6 1.625 2.172 2.627.214.375.463.75.77 1.049.658.638.909 1.39.865 2.287-.02.428-.017.893.131 1.282.285.753.477 1.52.63 2.308.143.721.428 1.403.987 1.924.589.547 1.391.472 1.855-.17Zm-5.337-19.843c-.178.33-.468.599-.733.923-.162-.113-.307-.163-.366-.264a4.323 4.323 0 0 0-.999-1.195c-.152-.124-.155-.425-.24-.69.715-.165 1.11-.541 1.351-1.138.41-1.008.639-1.112 2.012-.982-1.009.678-1.002 1.486-.785 2.393.069.288-.088.668-.24.953Z" fill="#11B0C8"/><path d="M177.592 32.683c-.526.137-.747.502-.643 1.022.121.606.49.948 1.105.894.538-.048.975.143 1.45.322.714.27 1.26.935 2.152.827-.056.176-.07.295-.126.387-.359.61-.492 1.263-.514 1.965-.011.32-.169.659-.337.944-.227.385-.299.769-.183 1.18.092.33.198.663.365.958.199.35.21.637.038 1.016-.366.818-.464 1.669-.011 2.51.073.136.13.306.124.456-.051.978.029 1.997-.219 2.925-.347 1.29-.378 2.57-.347 3.87.013.594.137 1.188.51 1.68.357.468.803.429 1.101-.077.068-.116.105-.252.146-.383.202-.652.401-1.305.594-1.962.103-.35.234-.697.278-1.054.184-1.539.36-3.08.501-4.622.078-.856.215-1.674.732-2.391.116-.163.22-.367.236-.56.049-.657.141-1.324-.109-1.967a.946.946 0 0 1 .056-.854c.472-.835.517-1.73.402-2.657-.053-.423-.047-.855-.067-1.282l.167-.122c.239.11.523.17.708.34.788.721 1.748.795 2.709.648.532-.083.931-.002 1.338.304a3.12 3.12 0 0 0 1.793.627c.931.033 1.286-.285 1.329-1.18.188-.136.387-.254.559-.403.473-.41.517-.918.074-1.37a2.23 2.23 0 0 0-.791-.521 5.44 5.44 0 0 0-1.204-.275c-.291-.038-.511-.136-.704-.36-.377-.444-.88-.646-1.46-.655-.435-.007-.871-.002-1.315-.002-.586-.801-.765-.859-1.855-.714-.467.06-.947.177-1.493-.06.111-.352.184-.71.334-1.03.453-.96.758-1.965.948-2.998.206-1.125.425-2.24.959-3.268l.042-.13c.119-.79.142-1.55-.539-2.145-.543-.473-.555-.598-.195-1.217.369-.632.771-1.247 1.105-1.897.195-.377.363-.799.407-1.214.085-.836-.491-1.315-1.335-1.181-.756.12-1.208.602-1.508 1.267-.215.476-.448.943-.678 1.416-.586 1.211-1.204 2.407-1.377 3.775-.062.49-.251.965-.417 1.437-.256.738-.466 1.485-.452 2.272a3.238 3.238 0 0 1-.35 1.519 3.135 3.135 0 0 0-.265 2.066c.163.818-.092 1.108-.911 1.112-.447.002-.876.043-1.233.341-.314.263-.678.361-1.079.385-.183.01-.368.04-.545.086ZM52.861 38.438c-.82.588-1.357.593-2.19.015-.245-.17-.476-.36-.724-.523-.435-.29-.89-.385-1.336-.025-.27.217-.544.212-.832.064-.484-.25-.937-.154-1.368.119-.33.206-.638.451-.974.645-.463.265-.892.02-.899-.509a1.283 1.283 0 0 1 .105-.53c.148-.333.324-.653.504-.97.226-.395.512-.764.694-1.18.415-.953.263-1.425-.575-1.978-.094-.062-.19-.122-.343-.22.12-.884.69-1.404 1.293-1.907.809-.674 1.626-1.34 2.405-2.047.436-.397.725-.893.42-1.512a2.392 2.392 0 0 1 1.343-.372c.39.003.782.004 1.172-.011.987-.038 1.848-.35 2.454-1.171.257-.35.376-.748.16-1.158-.198-.378-.538-.55-.968-.53-.756.032-1.513.043-2.265.11-.342.031-.617.034-.86-.257-.266-.317-.636-.422-1.054-.396-1.038.066-1.976.413-2.77 1.076-.245.204-.488.538-.528.84-.097.76-.516 1.115-1.222 1.242l-.328.1c-1.374.392-1.828.947-2.015 2.338-.077.58-.156 1.206-.424 1.708a5.124 5.124 0 0 0-.63 2.212c-.027.52-.23.968-.586 1.355-.248.269-.53.53-.694.847-.216.416-.403.873-.478 1.334-.096.574.28.949.862.992.104.008.209.002.378.002-.15.255-.298.434-.37.643-.138.405-.3.82-.336 1.238-.056.655.257.96.927 1.012.32.026.643.011.965.018.67.016.88.236.749.888-.118.6.002 1.119.503 1.46.462.318.557.732.568 1.233.006.318.04.642.128.946.067.23.207.458.372.636.282.308.677.341.98.062.262-.244.495-.541.666-.855.262-.48.436-1.009.693-1.491.203-.38.44-.75.718-1.076.243-.285.546-.416.977-.254.264.1.638.034.92-.072.335-.127.654-.341.923-.581.468-.422.965-.537 1.584-.435a2.54 2.54 0 0 0 2.951-2.108 1.44 1.44 0 0 0-.163-.906c-.316-.532-.83-.527-1.482-.06ZM162.69 34.687c-.503-.604-.627-1.182-.288-1.886.215-.452.437-.912.57-1.392.331-1.178.306-2.34-.289-3.454-.125-.233-.184-.516-.211-.781-.063-.566-.258-1.037-.68-1.45-.746-.73-1.55-1.34-2.552-1.69-1.379-.48-2.659-.321-3.726.656-.686.63-1.215 1.424-1.825 2.134-.189.22-.395.445-.636.598-1.068.675-1.9 1.521-2.109 2.82-.123.76-.39 1.418-.908 2.024-.663.78-.717 1.953-.146 2.68.752.961.888 2.022.735 3.173-.061.451-.089.907-.142 1.456.059.41.077.918.216 1.392.16.551.601.84 1.091.716.572-.147.969.116 1.401.385.344.215.701.417 1.074.578.219.096.374.196.489.422.369.718.821.958 1.636.801.625-.121 1.222-.36 1.88-.237.146.027.332-.029.464-.106.669-.395 1.434-.701 1.966-1.235.949-.95 1.815-2 2.602-3.09.47-.652.817-1.422.598-2.316-.208-.85-.676-1.553-1.21-2.198Zm-5.02 2.32c.34.7.318.711.25 1.4-.424.04-.869.083-1.266.119-.33-.51-.622-.967-.919-1.42-.253-.38-.565-.677-1.059-.653-.362.016-.487-.197-.545-.49-.063-.313-.115-.63-.18-.942-.182-.877.025-1.645.699-2.239.66-.581.924-1.248.775-2.131-.118-.698.378-1.114.975-1.405-.103.44-.216.877-.302 1.319-.178.897.197 1.554.926 2.048.171.116.359.205.529.322.437.3.526.553.359 1.056-.078.238-.19.465-.287.699-.319.779-.333 1.543.045 2.318ZM36.473 30.9c-.026-.859.122-1.68.427-2.48.227-.592.344-1.218.057-1.802a3.078 3.078 0 0 1-.266-1.991v-.274c-.036-.525-.285-.782-.816-.83a1.984 1.984 0 0 0-1.308.33c-.14.095-.325.183-.484.174-.835-.05-1.146.18-1.04.98a5.03 5.03 0 0 1-.297 2.484c-.048.127-.06.266-.089.401-.104.492-.036.913.484 1.146.33.148.407.44.351.744-.053.287-.173.564-.282.836-.187.467-.417.917-.577 1.39-.262.778-.181 1.493.523 2.033.276.211.418.488.403.829-.03.682-.031 1.368-.126 2.041-.063.461-.15.91.056 1.342.188.393.218.792.122 1.202-.116.501-.01.951.27 1.367.253.375.345.788.332 1.236-.008.41-.001.822-.001 1.234h-.02c0 .48-.014.96.005 1.441.023.58.153 1.137.576 1.572.467.48 1.025.424 1.383-.135.095-.152.183-.331.202-.506.061-.54.155-1.092.115-1.63-.092-1.304.04-2.553.673-3.723.108-.196.141-.432.222-.647.344-.891.237-1.746-.208-2.574l-.065-.122c-.224-.444-.216-.87.058-1.3.22-.347.386-.73.618-1.07.525-.762.451-1.749-.572-2.345-.567-.33-.71-.774-.726-1.352ZM33.827 21.05c.537.436 1.164.595 1.806.363.664-.239.983-.793 1.035-1.49.07-.935.205-1.85.43-2.766.244-.984-.36-1.594-1.465-1.441.06-.33.12-.592.15-.858.096-.788-.488-1.522-1.182-1.443-.53.06-1.021.254-1.397.669-.42.463-.566 1.187-.222 1.708.309.461.218.83-.017 1.263-.24.44-.467.897-.614 1.372-.196.645-.114 1.275.427 1.758.339.3.698.58 1.049.865ZM190.458 57.354v.131h-.38v.984h-.153v-.984h-.38v-.131M190.562 57.354h.217l.325.942.322-.942h.215v1.115h-.142v-.652l.001-.12v-.169l-.322.941h-.15l-.33-.94v.032l.008.126v.782h-.144" fill="#11B0C8"/></svg>
